<?xml version="1.0" encoding="UTF-8"?>
<svg xmlns="http://www.w3.org/2000/svg" xmlns:xlink="http://www.w3.org/1999/xlink" width="375pt" height="374.999991pt" viewBox="0 0 375 374.999991" version="1.2">
<defs>
<clipPath id="clip1">
  <path d="M 113 129 L 213.964844 129 L 213.964844 162.730469 L 113 162.730469 Z M 113 129 "/>
</clipPath>
<clipPath id="clip2">
  <path d="M 112.714844 53.417969 L 213.964844 53.417969 L 213.964844 87 L 112.714844 87 Z M 112.714844 53.417969 "/>
</clipPath>
<clipPath id="clip3">
  <path d="M 141 53.417969 L 185 53.417969 L 185 87 L 141 87 Z M 141 53.417969 "/>
</clipPath>
<clipPath id="clip4">
  <path d="M 142 129 L 185 129 L 185 162.730469 L 142 162.730469 Z M 142 129 "/>
</clipPath>
<clipPath id="clip5">
  <path d="M 113 92 L 213.964844 92 L 213.964844 126 L 113 126 Z M 113 92 "/>
</clipPath>
</defs>
<g id="surface1">
<rect x="0" y="0" width="375" height="374.999991" style="fill:rgb(100%,100%,100%);fill-opacity:1;stroke:none;"/>
<rect x="0" y="0" width="375" height="374.999991" style="fill:rgb(100%,100%,100%);fill-opacity:1;stroke:none;"/>
<rect x="0" y="0" width="375" height="374.999991" style="fill:rgb(100%,100%,100%);fill-opacity:1;stroke:none;"/>
<g clip-path="url(#clip1)" clip-rule="nonzero">
<path style=" stroke:none;fill-rule:nonzero;fill:rgb(13.729858%,14.118958%,14.509583%);fill-opacity:1;" d="M 205.847656 129.949219 C 197.871094 145.226562 181.828125 155.691406 163.371094 155.691406 C 144.90625 155.691406 128.867188 145.226562 120.890625 129.949219 L 113.078125 129.949219 C 121.574219 149.214844 140.914062 162.710938 163.371094 162.710938 C 185.824219 162.710938 205.164062 149.214844 213.660156 129.949219 L 205.847656 129.949219 "/>
</g>
<g clip-path="url(#clip2)" clip-rule="nonzero">
<path style=" stroke:none;fill-rule:nonzero;fill:rgb(13.729858%,14.118958%,14.509583%);fill-opacity:1;" d="M 120.523438 86.882812 C 128.367188 71.21875 144.621094 60.425781 163.371094 60.425781 C 182.117188 60.425781 198.371094 71.21875 206.214844 86.882812 L 213.980469 86.882812 C 205.652344 67.234375 186.105469 53.410156 163.371094 53.410156 C 140.632812 53.410156 121.082031 67.234375 112.753906 86.882812 L 120.523438 86.882812 "/>
</g>
<g clip-path="url(#clip3)" clip-rule="nonzero">
<path style=" stroke:none;fill-rule:nonzero;fill:rgb(13.729858%,14.118958%,14.509583%);fill-opacity:1;" d="M 149.046875 86.882812 C 151.964844 70.902344 157.898438 60.425781 163.371094 60.425781 C 168.839844 60.425781 174.769531 70.902344 177.691406 86.882812 L 184.832031 86.882812 C 181.695312 68.449219 174.386719 53.410156 163.371094 53.410156 C 152.351562 53.410156 145.042969 68.449219 141.90625 86.882812 L 149.046875 86.882812 "/>
</g>
<g clip-path="url(#clip4)" clip-rule="nonzero">
<path style=" stroke:none;fill-rule:nonzero;fill:rgb(13.729858%,14.118958%,14.509583%);fill-opacity:1;" d="M 177.554688 129.949219 C 174.589844 145.523438 168.757812 155.691406 163.371094 155.691406 C 157.980469 155.691406 152.148438 145.523438 149.183594 129.949219 L 142.03125 129.949219 C 145.230469 148.058594 152.496094 162.710938 163.371094 162.710938 C 174.242188 162.710938 181.503906 148.058594 184.707031 129.949219 L 177.554688 129.949219 "/>
</g>
<g clip-path="url(#clip5)" clip-rule="nonzero">
<path style=" stroke:none;fill-rule:nonzero;fill:rgb(13.729858%,14.118958%,14.509583%);fill-opacity:1;" d="M 213.210938 92.679688 L 113.527344 92.679688 L 113.527344 125.222656 L 213.210938 125.222656 Z M 211.398438 94.484375 L 211.398438 123.417969 L 115.339844 123.417969 L 115.339844 94.484375 L 211.398438 94.484375 "/>
</g>
<path style=" stroke:none;fill-rule:nonzero;fill:rgb(13.729858%,14.118958%,14.509583%);fill-opacity:1;" d="M 132.515625 118.347656 L 127.453125 101.171875 L 131.4375 101.171875 L 133.738281 109.527344 C 133.824219 109.878906 133.921875 110.378906 134.027344 111.023438 C 134.132812 111.667969 134.234375 112.382812 134.332031 113.160156 C 134.355469 112.710938 134.40625 112.261719 134.484375 111.808594 C 134.566406 111.355469 134.703125 110.789062 134.894531 110.117188 L 137.261719 101.171875 L 141.003906 101.171875 L 143.289062 109.527344 C 143.394531 109.976562 143.503906 110.511719 143.617188 111.144531 C 143.730469 111.773438 143.828125 112.445312 143.914062 113.160156 C 143.96875 112.617188 144.039062 112.09375 144.125 111.589844 C 144.210938 111.089844 144.3125 110.597656 144.429688 110.117188 L 146.808594 101.171875 L 150.828125 101.171875 L 145.78125 118.347656 L 142.164062 118.347656 L 140.027344 110.902344 C 139.777344 110.058594 139.585938 109.324219 139.445312 108.695312 C 139.304688 108.066406 139.203125 107.476562 139.140625 106.933594 C 138.988281 107.808594 138.851562 108.574219 138.722656 109.230469 C 138.59375 109.886719 138.480469 110.386719 138.382812 110.726562 L 136.101562 118.347656 L 132.515625 118.347656 "/>
<path style=" stroke:none;fill-rule:nonzero;fill:rgb(13.729858%,14.118958%,14.509583%);fill-opacity:1;" d="M 156.921875 118.347656 L 151.859375 101.171875 L 155.847656 101.171875 L 158.144531 109.527344 C 158.230469 109.878906 158.328125 110.378906 158.433594 111.023438 C 158.542969 111.667969 158.644531 112.382812 158.742188 113.160156 C 158.761719 112.710938 158.8125 112.261719 158.894531 111.808594 C 158.972656 111.355469 159.109375 110.789062 159.304688 110.117188 L 161.667969 101.171875 L 165.414062 101.171875 L 167.695312 109.527344 C 167.804688 109.976562 167.914062 110.511719 168.027344 111.144531 C 168.136719 111.773438 168.238281 112.445312 168.324219 113.160156 C 168.375 112.617188 168.449219 112.09375 168.53125 111.589844 C 168.617188 111.089844 168.71875 110.597656 168.839844 110.117188 L 171.21875 101.171875 L 175.238281 101.171875 L 170.1875 118.347656 L 166.570312 118.347656 L 164.433594 110.902344 C 164.183594 110.058594 163.992188 109.324219 163.855469 108.695312 C 163.714844 108.066406 163.613281 107.476562 163.550781 106.933594 C 163.398438 107.808594 163.257812 108.574219 163.128906 109.230469 C 163.003906 109.886719 162.886719 110.386719 162.792969 110.726562 L 160.507812 118.347656 L 156.921875 118.347656 "/>
<path style=" stroke:none;fill-rule:nonzero;fill:rgb(13.729858%,14.118958%,14.509583%);fill-opacity:1;" d="M 181.332031 118.347656 L 176.265625 101.171875 L 180.253906 101.171875 L 182.554688 109.527344 C 182.640625 109.878906 182.734375 110.378906 182.84375 111.023438 C 182.949219 111.667969 183.050781 112.382812 183.148438 113.160156 C 183.167969 112.710938 183.21875 112.261719 183.300781 111.808594 C 183.382812 111.355469 183.519531 110.789062 183.710938 110.117188 L 186.074219 101.171875 L 189.820312 101.171875 L 192.105469 109.527344 C 192.210938 109.976562 192.320312 110.511719 192.433594 111.144531 C 192.546875 111.773438 192.644531 112.445312 192.730469 113.160156 C 192.785156 112.617188 192.855469 112.09375 192.941406 111.589844 C 193.027344 111.089844 193.128906 110.597656 193.246094 110.117188 L 195.625 101.171875 L 199.644531 101.171875 L 194.597656 118.347656 L 190.980469 118.347656 L 188.839844 110.902344 C 188.59375 110.058594 188.402344 109.324219 188.261719 108.695312 C 188.121094 108.066406 188.019531 107.476562 187.957031 106.933594 C 187.804688 107.808594 187.667969 108.574219 187.539062 109.230469 C 187.410156 109.886719 187.296875 110.386719 187.199219 110.726562 L 184.917969 118.347656 L 181.332031 118.347656 "/>
</g>
</svg>
